<svg xmlns="http://www.w3.org/2000/svg" xmlns:xlink="http://www.w3.org/1999/xlink" version="1.1" x="0px" y="0px" width="60px" height="60px" viewBox="0 0 100 100" enable-background="new 0 0 100 100" xml:space="preserve">
  <g id="Your_Icon">
    <path fill="#ECECEC" d="M46.98,10.181"/>
    <path fill="#ECECEC" d="M59.572,50.718l3.029-29.922l-17.913,0.683l-0.667,28.422C49.678,50.937,55.676,50.909,59.572,50.718z"/>
    <path fill="#ECECEC" d="M27.964,65.794c-0.654-0.576-2.01-1.533-3.811-1.53l-0.947,0.662c0,0-1.218,7.763-1.895,12.955   c-0.678,5.19-1.942,15.574-1.942,15.574c0.211,0.902,2.257,2.166,2.257,2.166c0.66,0.354,0.785,0.496,2.72,1.043L27.964,65.794z"/>
    <path fill="#ECECEC" d="M28.119,50.645c9.519,0.565,14.248-0.438,15.364-0.723l-0.276-28.448l-17.783-0.619L28.119,50.645z"/>
    <polygon fill="#ECECEC" points="44.249,13.015 47.697,12.545 50.006,3.146 44.287,1.04 38.569,3.146 40.915,12.704  "/>
    <polygon fill="#ECECEC" points="21.871,19.535 25.066,20.121 44.045,20.781 62.971,20.059 67.15,19.41 61.004,16.982 60.822,16.861 48.363,13.183    44.264,13.741 39.742,13.32 28.791,16.554 28.187,16.696  "/>
    <path fill="#ECECEC" d="M43.74,67.477c-1.153-0.395-4.771-1.577-6.976-1.677c-2.486-0.113-6.669,0.198-8.118,0.386l-3.593,30.674   c0.185,0.051,0.382,0.104,0.592,0.16c3.205,0.858,8.666,1.309,8.666,1.309c1.428,0.11,7.102,0.261,9.195,0.312L43.74,67.477z"/>
    <path fill="#ECECEC" d="M43.985,52.137c-10.472,0-19.259-1.745-19.259-1.745l0.039,8.87l0.232,0.128c5.415,0.786,21.731,2.712,38.036,0.299   l0.777-0.427l0.035-8.87C55.723,52.258,54.457,52.137,43.985,52.137z"/>
    <path fill="#ECECEC" d="M24.693,20.786l-5.055-0.927l6.16-2.759l-11.845,1.965c-6.108,1.835-6.891,4.304-6.891,4.304   c3.129,0.331,5.13,3.325,5.13,3.325l4.424,8.079l4.936,8.856l0.645,4.835l2.528,1.927c0.926,0.082,1.812,0.15,2.665,0.206   L24.693,20.786z"/>
    <path fill="#ECECEC" d="M59.445,66.642c-1.102-0.206-4.914-0.866-7.516-0.661c-2.559,0.2-6.286,1.194-7.457,1.52l0.233,31.149   c1.696-0.043,8.036-0.204,9.555-0.321c0,0,4.965-0.409,8.205-1.191L59.445,66.642z"/>
    <path fill="#ECECEC" d="M93.096,24.813L89.816,20.9c0,0-4.033-5.236-5.447-5.596c-0.719-0.184-1.941,0.014-1.941,0.014l-5.236,1.265l-14.469,0.369   l6.971,2.792l-6.357,0.986l-3.033,29.948c2.184-0.125,3.543-0.287,3.543-0.287l2.529-1.927l2.773-20.756   c1.943-0.465,10.879-2.605,12.084-2.866c1.355-0.293,2.258,0.135,2.596,0.406c0.338,0.27,1.332,1.354,1.896,2.504   c0.564,1.151-0.18,3.138-0.18,3.138s-1.785,3.069-2.303,4.198c-0.521,1.128-1.332,3.746-1.648,5.281   c-0.316,1.535-0.361,5.529-0.451,6.951c-0.09,1.422-0.904,2.145-1.691,2.822c-0.791,0.677-2.439,1.061-2.777,1.105   c-0.34,0.046-1.018-0.203-1.018-0.203l-1.781-1.174c-1.016-0.316-1.219,0.587-1.219,0.587l2.189,7.29l7.582-1.829   c1.324-0.329,2.002-0.803,2.363-1.135c0.361-0.33,0.691-1.355,0.691-1.355l4.064-11.946l2.879-8.989c0,0,1.559-3.973,1.574-5.604   C94.006,26.167,93.096,24.813,93.096,24.813z"/>
    <path fill="#ECECEC" d="M65.365,64.926c0,0-3.062-0.774-5.23,1.36l3.039,30.668c2.959-0.798,3.01-0.925,3.771-1.333c0,0,2.047-1.264,2.258-2.166   c0,0-1.264-10.384-1.941-15.574C66.586,72.688,65.365,64.926,65.365,64.926z"/>
    <path fill="#ECECEC" d="M61.5,60.812c-5.35,0.7-10.662,0.953-15.554,0.953c-7.938,0-14.772-0.668-18.879-1.187l0.044,1.615l-2.439,1.709   c2.8,0.417,11.252,1.564,19.525,1.564c10.02,0,19.952-1.354,19.952-1.354l-2.688-1.919L61.5,60.812z"/>
  </g>
</svg>
